HIERARCHY
ROOT Hips
{
	OFFSET 0.000000 0.000000 0.000000
	CHANNELS 6 Xposition Yposition Zposition Xrotation Yrotation Zrotation
	JOINT LeftUpLeg_virtual
	{
		OFFSET 0.000000 0.000000 0.000000
		CHANNELS 3 Xrotation Yrotation Zrotation
		JOINT LeftUpLeg
		{
			OFFSET 10.205400 -3.823500 0.155100
			CHANNELS 3 Xrotation Yrotation Zrotation
			JOINT LeftLeg
			{
				OFFSET 0.708757 -12.982077 0.567790
				CHANNELS 3 Xrotation Yrotation Zrotation
				JOINT LeftFoot
				{
					OFFSET -0.708756 -10.717838 -2.184338
					CHANNELS 3 Xrotation Yrotation Zrotation
					JOINT LeftToeBase
					{
						OFFSET 0.108149 -7.191104 7.560241
						CHANNELS 3 Xrotation Yrotation Zrotation
						JOINT LeftToe_End
						{
							OFFSET 0.070230 0.081724 4.490308
							CHANNELS 3 Xrotation Yrotation Zrotation
							End Site
							{
								OFFSET 0 0 0
							}
						}
					}
				}
			}
		}
	}
	JOINT RightUpLeg_virtual
	{
		OFFSET 0.000000 0.000000 0.000000
		CHANNELS 3 Xrotation Yrotation Zrotation
		JOINT RightUpLeg
		{
			OFFSET -10.205400 -3.823500 0.005500
			CHANNELS 3 Xrotation Yrotation Zrotation
			JOINT RightLeg
			{
				OFFSET -0.708756 -12.982134 0.610632
				CHANNELS 3 Xrotation Yrotation Zrotation
				JOINT RightFoot
				{
					OFFSET 0.708754 -10.717769 -1.945823
					CHANNELS 3 Xrotation Yrotation Zrotation
					JOINT RightToeBase
					{
						OFFSET -0.108140 -7.191069 7.372968
						CHANNELS 3 Xrotation Yrotation Zrotation
						JOINT RightToe_End
						{
							OFFSET -0.070227 0.081735 4.479403
							CHANNELS 3 Xrotation Yrotation Zrotation
							End Site
							{
								OFFSET 0 0 0
							}
						}
					}
				}
			}
		}
	}
	JOINT Spine_virtual
	{
		OFFSET 0.000000 0.000000 0.000000
		CHANNELS 3 Xrotation Yrotation Zrotation
		JOINT Spine
		{
			OFFSET 0.000000 6.876099 0.125700
			CHANNELS 3 Xrotation Yrotation Zrotation
			JOINT Spine1
			{
				OFFSET 0.000000 5.730043 0.104720
				CHANNELS 3 Xrotation Yrotation Zrotation
				JOINT Spine1_split
				{
					OFFSET 0.000000 5.730043 0.104720
					CHANNELS 3 Xrotation Yrotation Zrotation
					JOINT Spine2
					{
						OFFSET 0.000000 5.730043 0.104720
						CHANNELS 3 Xrotation Yrotation Zrotation
						JOINT Neck_virtual
						{
							OFFSET 0.000000 0.000000 0.000000
							CHANNELS 3 Xrotation Yrotation Zrotation
							JOINT Neck
							{
								OFFSET 0.000000 10.314075 0.188496
								CHANNELS 3 Xrotation Yrotation Zrotation
								JOINT Head
								{
									OFFSET 0.000000 7.643700 -2.377400
									CHANNELS 3 Xrotation Yrotation Zrotation
									JOINT HeadTop_End
									{
										OFFSET 0.000000 43.788605 -13.619600
										CHANNELS 3 Xrotation Yrotation Zrotation
										End Site
										{
											OFFSET 0 0 0
										}
									}
								}
							}
						}
						JOINT LeftShoulder_virtual
						{
							OFFSET 0.000000 0.000000 0.000000
							CHANNELS 3 Xrotation Yrotation Zrotation
							JOINT LeftShoulder
							{
								OFFSET 2.196100 4.412489 0.087492
								CHANNELS 3 Xrotation Yrotation Zrotation
								JOINT LeftShoulder_split
								{
									OFFSET 2.196100 4.412489 0.087492
									CHANNELS 3 Xrotation Yrotation Zrotation
									JOINT LeftArm
									{
										OFFSET 8.771219 -2.981674 -0.026999
										CHANNELS 3 Xrotation Yrotation Zrotation
										JOINT LeftForeArm
										{
											OFFSET 8.512804 0.000000 -0.000000
											CHANNELS 3 Xrotation Yrotation Zrotation
											JOINT LeftHand
											{
												OFFSET 18.484802 0.000000 -0.000000
												CHANNELS 3 Xrotation Yrotation Zrotation
												End Site
												{
													OFFSET 0 0 0
												}
											}
										}
									}
								}
							}
						}
						JOINT RightShoulder_virtual
						{
							OFFSET 0.000000 0.000000 0.000000
							CHANNELS 3 Xrotation Yrotation Zrotation
							JOINT RightShoulder
							{
								OFFSET -2.196100 4.412496 0.070690
								CHANNELS 3 Xrotation Yrotation Zrotation
								JOINT RightShoulder_split
								{
									OFFSET -2.196100 4.412496 0.070690
									CHANNELS 3 Xrotation Yrotation Zrotation
									JOINT RightArm
									{
										OFFSET -8.771282 -2.981682 -0.094208
										CHANNELS 3 Xrotation Yrotation Zrotation
										JOINT RightForeArm
										{
											OFFSET -8.494598 0.000000 0.000000
											CHANNELS 3 Xrotation Yrotation Zrotation
											JOINT RightHand
											{
												OFFSET -18.483803 0.000000 0.000001
												CHANNELS 3 Xrotation Yrotation Zrotation
												End Site
												{
													OFFSET 0 0 0
												}
											}
										}
									}
								}
							}
						}
					}
				}
			}
		}
	}
}
MOTION
Frames: 6
Frame Time: 0.03333333
-0.117027 29.371222 0.319893 0.000000 0.000000 0.000000 15.229143 -57.102963 14.113199 -52.040434 6.190954 31.608818 50.410157 -11.939915 -6.474326 -3.355180 -1.702913 -5.277139 0.000021 0.174535 0.475159 0.000000 0.000000 0.000000 16.246986 -58.392182 15.602095 -25.845950 -3.048117 -25.339729 57.109408 11.134488 -0.829354 -41.180522 -10.177727 11.948038 4.178893 0.174055 0.817103 0.000000 0.000000 0.000000 15.952605 -57.999002 13.956187 5.975125 1.852885 -2.886109 -3.805495 5.382601 -3.932524 0.373891 -3.657369 1.055159 0.000000 0.000000 0.000000 -1.593282 4.739251 -3.475117 -16.085340 9.453732 4.511162 2.856742 31.976985 0.472040 0.000000 0.000000 0.000000 -3.222811 5.003408 -3.620350 -31.378415 12.088561 5.201084 -7.441554 6.942883 -5.525212 36.366147 -18.630669 -36.291210 -30.965554 -85.019210 -30.764569 0.000000 0.000000 0.000000 -4.178212 4.530050 -3.648808 3.295495 13.110856 11.154354 -7.745923 2.362028 -0.696293 7.758709 4.461298 65.718188 13.260118 68.223672 -15.937459 0.000000 0.000000 0.000000 
-0.106881 29.410658 0.438082 0.000000 0.000000 0.000000 14.957489 -57.160176 13.864526 -52.039392 6.627324 31.842718 49.984243 -11.768454 -6.717643 -3.728247 -1.785789 -5.177430 0.056655 0.124450 0.564116 0.000000 0.000000 0.000000 16.096374 -58.541688 15.363071 -25.383858 -3.120087 -25.171194 56.730069 10.970272 -0.808305 -41.427679 -10.150602 11.671306 3.918532 0.167259 0.853492 0.000000 0.000000 0.000000 16.061528 -58.153132 14.081568 6.039928 1.914041 -3.059522 -3.715564 5.365549 -3.973051 0.891014 -3.432869 1.109099 0.000000 0.000000 0.000000 -1.375159 4.770036 -3.544161 -15.582315 9.923005 4.442059 2.548977 31.934560 0.565648 0.000000 0.000000 0.000000 -2.833258 4.968744 -3.544271 -31.452454 11.632781 5.206320 -6.723228 5.454044 -5.087225 36.639990 -20.346632 -36.458819 -29.469227 -84.499036 -29.080753 0.000000 0.000000 0.000000 -3.941467 4.513257 -3.661981 3.316919 13.160739 11.778860 -8.696351 2.891017 -0.204287 9.053932 4.128811 65.768315 12.208120 67.826128 -14.806020 0.000000 0.000000 0.000000 
-0.077820 29.476738 0.508749 0.000000 0.000000 0.000000 14.544287 -57.259525 13.374560 -51.519656 7.117408 32.040465 49.090643 -11.644903 -6.976295 -4.272453 -1.883855 -5.100622 0.274316 0.034330 0.584918 0.000000 0.000000 0.000000 15.577460 -58.554372 14.704130 -24.576518 -3.510243 -24.864627 56.196167 10.708754 -0.833211 -42.016155 -10.170937 11.282346 3.491164 0.137309 0.906767 0.000000 0.000000 0.000000 15.696062 -58.068315 13.849267 6.231202 1.930358 -3.293573 -3.595995 5.462395 -4.051938 1.127613 -3.332675 1.273480 0.000000 0.000000 0.000000 -1.230687 4.895523 -3.711839 -15.119554 10.580003 4.464051 1.730718 32.160991 0.981102 0.000000 0.000000 0.000000 -2.511973 5.086443 -3.560310 -31.503582 10.716216 5.016336 -5.503198 4.059706 -4.689666 37.046796 -22.530649 -36.194597 -20.954491 -82.356734 -20.557181 0.000000 0.000000 0.000000 -3.491733 4.607498 -3.778954 3.223415 12.906393 12.405728 -8.973593 3.061459 -0.177502 10.511312 5.210850 64.967257 10.895812 67.885653 -13.620008 0.000000 0.000000 0.000000 
-0.029732 29.549122 0.527386 0.000000 0.000000 0.000000 13.986704 -57.224493 12.676996 -50.720548 7.549617 32.205585 48.171511 -11.599044 -7.267665 -4.911163 -1.998170 -4.994603 0.605544 -0.085268 0.529984 0.000000 0.000000 0.000000 14.838304 -58.395857 13.835479 -23.700116 -4.021676 -24.573993 55.547784 10.463454 -0.898903 -42.754956 -10.237089 10.995028 3.030225 0.090412 0.946648 0.000000 0.000000 0.000000 14.980459 -57.708378 13.360495 6.502356 1.810850 -3.458378 -3.465587 5.638932 -4.124350 0.857651 -3.278460 1.389136 0.000000 0.000000 0.000000 -1.190425 5.051184 -3.871338 -14.831870 11.435744 4.555588 0.767484 32.705125 1.345178 0.000000 0.000000 0.000000 -2.231128 5.273230 -3.633709 -31.500245 9.573946 4.700596 -4.489179 3.249334 -4.648432 37.331212 -24.530768 -35.851943 -13.964060 -78.813006 -13.628375 0.000000 0.000000 0.000000 -2.887375 4.773286 -3.947685 3.039866 12.431848 12.955731 -8.840690 2.966290 -0.229230 12.125123 7.404836 63.114172 9.479479 68.294727 -12.575432 0.000000 0.000000 0.000000 
-0.000645 29.633081 0.510612 0.000000 0.000000 0.000000 13.326829 -57.074345 11.858479 -49.912024 7.817964 32.358636 47.556876 -11.602465 -7.663489 -5.477121 -2.129072 -4.828121 0.913024 -0.213203 0.417029 0.000000 0.000000 0.000000 13.999753 -58.007007 12.926681 -22.902873 -4.474388 -24.369761 54.946375 10.385226 -1.011773 -43.397885 -10.308493 11.086936 2.538491 0.033866 0.941813 0.000000 0.000000 0.000000 14.035350 -57.048940 12.653559 6.797616 1.475901 -3.446995 -3.335745 5.838667 -4.158252 0.469253 -3.456753 1.150923 0.000000 0.000000 0.000000 -1.234683 5.172746 -3.908665 -14.554508 12.512017 4.656718 -0.046059 33.590242 1.339026 0.000000 0.000000 0.000000 -2.012230 5.440578 -3.712182 -31.445522 8.404669 4.169425 -4.178521 3.133794 -5.024968 37.458485 -25.915140 -35.705514 -10.319734 -74.883728 -10.009168 0.000000 0.000000 0.000000 -2.246852 4.932814 -4.069819 2.864390 11.914113 13.357558 -8.398460 2.893590 -0.193864 13.922886 10.394956 60.230029 7.987546 68.894315 -11.608899 0.000000 0.000000 0.000000 
-0.025582 29.707352 0.465827 0.000000 0.000000 0.000000 12.626293 -56.859699 11.019180 -49.390443 7.803945 32.587615 47.440476 -11.630899 -8.230189 -5.713984 -2.276670 -4.575762 1.025041 -0.339902 0.276161 0.000000 0.000000 0.000000 13.205266 -57.530062 12.087298 -22.245784 -4.767921 -24.213092 54.546823 10.483001 -1.119740 -43.864113 -10.376737 11.528214 2.117476 -0.021435 0.893650 0.000000 0.000000 0.000000 13.063239 -56.232999 11.890877 7.057903 0.873394 -3.190039 -3.283210 6.010309 -4.135511 0.322475 -3.475194 0.651968 0.000000 0.000000 0.000000 -1.378322 5.234114 -3.758622 -14.154783 13.764288 4.750386 -0.380971 34.716417 0.776539 0.000000 0.000000 0.000000 -1.804311 5.548254 -3.753686 -31.341484 7.323505 3.495271 -4.283723 3.360217 -5.812987 37.613855 -26.410159 -35.941111 -8.646883 -71.677030 -8.337544 0.000000 0.000000 0.000000 -1.633792 5.059671 -4.086343 2.777829 11.540019 13.508668 -7.874094 3.022005 0.015249 15.864161 13.728861 56.559676 6.399492 69.497974 -10.593909 0.000000 0.000000 0.000000 
